<svg width="21" height="20" viewBox="0 0 21 20" fill="none" xmlns="http://www.w3.org/2000/svg">
<path d="M10.5 2.5C6.35685 2.5 3 5.85685 3 10C3 14.1431 6.35685 17.5 10.5 17.5C14.6431 17.5 18 14.1431 18 10C18 5.85685 14.6431 2.5 10.5 2.5ZM14.4022 10.7258L9.07964 13.7802C8.60181 14.0464 8 13.7046 8 13.1452C8 10.6886 8 9.31136 8 6.85484C8 6.29839 8.59879 5.95363 9.07964 6.21976C11.1582 7.48345 12.3236 8.19195 14.4022 9.45564C14.8982 9.73387 14.8982 10.4506 14.4022 10.7258Z" fill="#212429"/>
</svg>
