<svg width="1442" height="547" viewBox="0 0 1442 547" fill="none" xmlns="http://www.w3.org/2000/svg">
<rect width="1442" height="547" fill="#0B485B"/>
<mask id="mask0" mask-type="alpha" maskUnits="userSpaceOnUse" x="0" y="0" width="1442" height="547">
<rect width="1442" height="547" fill="#0B485B"/>
</mask>
<g mask="url(#mask0)">
<path opacity="0.1" d="M1345.44 25.6917L1345.6 25.868L1553.96 268.059L1552.16 268.515L1343.94 26.508L897.421 -86.3459L898.263 -87.3232L1345.44 25.6917Z" fill="url(#paint0_linear)"/>
<path opacity="0.2" d="M1333.18 32.3411L1333.33 32.5174L1541.7 274.705L1539.89 275.165L1331.67 33.1575L885.153 -79.6965L886.001 -80.6776L1333.18 32.3411Z" fill="url(#paint1_linear)"/>
<path opacity="0.3" d="M1320.91 38.9903L1321.06 39.1666L1529.43 281.354L1527.62 281.814L1319.41 39.8028L872.885 -73.0472L873.733 -74.0283L1320.91 38.9903Z" fill="url(#paint2_linear)"/>
<path opacity="0.4" d="M1308.65 45.6357L1308.8 45.8159L1517.17 288.003L1515.36 288.463L1307.14 46.4521L860.617 -66.3981L861.465 -67.3792L1308.65 45.6357Z" fill="url(#paint3_linear)"/>
<path opacity="0.5" d="M1296.38 52.2849L1296.53 52.465L1504.9 294.652L1503.09 295.112L1294.87 53.1012L848.348 -59.7488L849.197 -60.7299L1296.38 52.2849Z" fill="url(#paint4_linear)"/>
<path opacity="0.6" d="M1284.11 58.9341L1284.26 59.1142L1492.63 301.301L1490.82 301.761L1282.6 59.7504L836.079 -53.0997L836.928 -54.0808L1284.11 58.9341Z" fill="url(#paint5_linear)"/>
<path opacity="0.7" d="M1271.84 65.5835L1271.99 65.7636L1480.36 307.951L1478.55 308.411L1270.34 66.3998L823.812 -46.4502L824.66 -47.4313L1271.84 65.5835Z" fill="url(#paint6_linear)"/>
<path opacity="0.8" d="M1259.57 72.233L1259.73 72.4093L1468.1 314.597L1466.29 315.057L1258.07 73.0493L811.55 -39.8047L812.399 -40.7858L1259.57 72.233Z" fill="url(#paint7_linear)"/>
<path opacity="0.9" d="M1247.3 78.8821L1247.46 79.0584L1455.83 321.246L1454.02 321.706L1245.8 79.6984L799.282 -33.1555L800.131 -34.1366L1247.3 78.8821Z" fill="url(#paint8_linear)"/>
<path d="M1235.04 85.5313L1235.19 85.7076L1443.56 327.895L1441.75 328.355L1233.54 86.3438L787.014 -26.5063L787.862 -27.4874L1235.04 85.5313Z" fill="url(#paint9_linear)"/>
<path opacity="0.1" d="M91.3815 479.925L91.2259 479.748L-117.137 237.557L-115.334 237.101L92.8876 479.108L539.404 591.962L538.563 592.939L91.3815 479.925Z" fill="url(#paint10_linear)"/>
<path opacity="0.2" d="M103.65 473.275L103.494 473.099L-104.876 230.911L-103.066 230.451L105.156 472.459L551.673 585.312L550.824 586.294L103.65 473.275Z" fill="url(#paint11_linear)"/>
<path opacity="0.3" d="M115.918 466.626L115.763 466.449L-92.6077 224.262L-90.7975 223.802L117.417 465.813L563.941 578.663L563.092 579.644L115.918 466.626Z" fill="url(#paint12_linear)"/>
<path opacity="0.4" d="M128.179 459.98L128.031 459.8L-80.3396 217.613L-78.5294 217.153L129.685 459.164L576.209 572.014L575.361 572.995L128.179 459.98Z" fill="url(#paint13_linear)"/>
<path opacity="0.5" d="M140.448 453.331L140.299 453.151L-68.0711 210.963L-66.2609 210.504L141.954 452.515L588.478 565.365L587.629 566.346L140.448 453.331Z" fill="url(#paint14_linear)"/>
<path opacity="0.6" d="M152.716 446.682L152.568 446.502L-55.8025 204.314L-53.9923 203.855L154.222 445.866L600.746 558.716L599.898 559.697L152.716 446.682Z" fill="url(#paint15_linear)"/>
<path opacity="0.7" d="M164.984 440.032L164.836 439.852L-43.5344 197.665L-41.7242 197.205L166.49 439.216L613.014 552.066L612.166 553.047L164.984 440.032Z" fill="url(#paint16_linear)"/>
<path opacity="0.8" d="M177.253 433.383L177.097 433.207L-31.2732 191.02L-29.463 190.56L178.759 432.567L625.275 545.421L624.427 546.402L177.253 433.383Z" fill="url(#paint17_linear)"/>
<path opacity="0.9" d="M189.521 426.734L189.365 426.558L-19.0051 184.37L-17.1949 183.91L191.027 425.918L637.544 538.771L636.695 539.753L189.521 426.734Z" fill="url(#paint18_linear)"/>
<path d="M201.789 420.085L201.634 419.909L-6.73659 177.721L-4.92639 177.261L203.288 419.272L649.812 532.123L648.964 533.104L201.789 420.085Z" fill="url(#paint19_linear)"/>
</g>
<defs>
<linearGradient id="paint0_linear" x1="1612.97" y1="236.08" x2="1315.21" y2="-313.304" gradientUnits="userSpaceOnUse">
<stop stop-color="#78EDF2"/>
<stop offset="0.5" stop-color="#19C1CE" stop-opacity="0.4"/>
<stop offset="1" stop-color="#78EDF2" stop-opacity="0"/>
</linearGradient>
<linearGradient id="paint1_linear" x1="1600.7" y1="242.73" x2="1302.94" y2="-306.654" gradientUnits="userSpaceOnUse">
<stop stop-color="#78EDF2"/>
<stop offset="0.5" stop-color="#19C1CE" stop-opacity="0.4"/>
<stop offset="1" stop-color="#78EDF2" stop-opacity="0"/>
</linearGradient>
<linearGradient id="paint2_linear" x1="1588.43" y1="249.378" x2="1290.67" y2="-300.005" gradientUnits="userSpaceOnUse">
<stop stop-color="#78EDF2"/>
<stop offset="0.5" stop-color="#19C1CE" stop-opacity="0.4"/>
<stop offset="1" stop-color="#78EDF2" stop-opacity="0"/>
</linearGradient>
<linearGradient id="paint3_linear" x1="1576.16" y1="256.026" x2="1278.4" y2="-293.358" gradientUnits="userSpaceOnUse">
<stop stop-color="#78EDF2"/>
<stop offset="0.5" stop-color="#19C1CE" stop-opacity="0.4"/>
<stop offset="1" stop-color="#78EDF2" stop-opacity="0"/>
</linearGradient>
<linearGradient id="paint4_linear" x1="1563.9" y1="262.675" x2="1266.14" y2="-286.709" gradientUnits="userSpaceOnUse">
<stop stop-color="#78EDF2"/>
<stop offset="0.5" stop-color="#19C1CE" stop-opacity="0.4"/>
<stop offset="1" stop-color="#78EDF2" stop-opacity="0"/>
</linearGradient>
<linearGradient id="paint5_linear" x1="1551.63" y1="269.324" x2="1253.87" y2="-280.06" gradientUnits="userSpaceOnUse">
<stop stop-color="#78EDF2"/>
<stop offset="0.5" stop-color="#19C1CE" stop-opacity="0.4"/>
<stop offset="1" stop-color="#78EDF2" stop-opacity="0"/>
</linearGradient>
<linearGradient id="paint6_linear" x1="1539.36" y1="275.974" x2="1241.6" y2="-273.41" gradientUnits="userSpaceOnUse">
<stop stop-color="#78EDF2"/>
<stop offset="0.5" stop-color="#19C1CE" stop-opacity="0.4"/>
<stop offset="1" stop-color="#78EDF2" stop-opacity="0"/>
</linearGradient>
<linearGradient id="paint7_linear" x1="1527.09" y1="282.621" x2="1229.33" y2="-266.763" gradientUnits="userSpaceOnUse">
<stop stop-color="#78EDF2"/>
<stop offset="0.5" stop-color="#19C1CE" stop-opacity="0.4"/>
<stop offset="1" stop-color="#78EDF2" stop-opacity="0"/>
</linearGradient>
<linearGradient id="paint8_linear" x1="1514.83" y1="289.271" x2="1217.07" y2="-260.114" gradientUnits="userSpaceOnUse">
<stop stop-color="#78EDF2"/>
<stop offset="0.5" stop-color="#19C1CE" stop-opacity="0.4"/>
<stop offset="1" stop-color="#78EDF2" stop-opacity="0"/>
</linearGradient>
<linearGradient id="paint9_linear" x1="1502.56" y1="295.92" x2="1204.8" y2="-253.464" gradientUnits="userSpaceOnUse">
<stop stop-color="#78EDF2"/>
<stop offset="0.5" stop-color="#19C1CE" stop-opacity="0.4"/>
<stop offset="1" stop-color="#78EDF2" stop-opacity="0"/>
</linearGradient>
<linearGradient id="paint10_linear" x1="-176.14" y1="269.536" x2="121.619" y2="818.92" gradientUnits="userSpaceOnUse">
<stop stop-color="#78EDF2"/>
<stop offset="0.5" stop-color="#19C1CE" stop-opacity="0.4"/>
<stop offset="1" stop-color="#78EDF2" stop-opacity="0"/>
</linearGradient>
<linearGradient id="paint11_linear" x1="-163.872" y1="262.886" x2="133.888" y2="812.27" gradientUnits="userSpaceOnUse">
<stop stop-color="#78EDF2"/>
<stop offset="0.5" stop-color="#19C1CE" stop-opacity="0.4"/>
<stop offset="1" stop-color="#78EDF2" stop-opacity="0"/>
</linearGradient>
<linearGradient id="paint12_linear" x1="-151.604" y1="256.237" x2="146.156" y2="805.621" gradientUnits="userSpaceOnUse">
<stop stop-color="#78EDF2"/>
<stop offset="0.5" stop-color="#19C1CE" stop-opacity="0.4"/>
<stop offset="1" stop-color="#78EDF2" stop-opacity="0"/>
</linearGradient>
<linearGradient id="paint13_linear" x1="-139.339" y1="249.59" x2="158.421" y2="798.974" gradientUnits="userSpaceOnUse">
<stop stop-color="#78EDF2"/>
<stop offset="0.5" stop-color="#19C1CE" stop-opacity="0.4"/>
<stop offset="1" stop-color="#78EDF2" stop-opacity="0"/>
</linearGradient>
<linearGradient id="paint14_linear" x1="-127.071" y1="242.941" x2="170.69" y2="792.325" gradientUnits="userSpaceOnUse">
<stop stop-color="#78EDF2"/>
<stop offset="0.5" stop-color="#19C1CE" stop-opacity="0.4"/>
<stop offset="1" stop-color="#78EDF2" stop-opacity="0"/>
</linearGradient>
<linearGradient id="paint15_linear" x1="-114.802" y1="236.292" x2="182.958" y2="785.676" gradientUnits="userSpaceOnUse">
<stop stop-color="#78EDF2"/>
<stop offset="0.5" stop-color="#19C1CE" stop-opacity="0.4"/>
<stop offset="1" stop-color="#78EDF2" stop-opacity="0"/>
</linearGradient>
<linearGradient id="paint16_linear" x1="-102.534" y1="229.642" x2="195.226" y2="779.026" gradientUnits="userSpaceOnUse">
<stop stop-color="#78EDF2"/>
<stop offset="0.5" stop-color="#19C1CE" stop-opacity="0.4"/>
<stop offset="1" stop-color="#78EDF2" stop-opacity="0"/>
</linearGradient>
<linearGradient id="paint17_linear" x1="-90.2693" y1="222.995" x2="207.491" y2="772.379" gradientUnits="userSpaceOnUse">
<stop stop-color="#78EDF2"/>
<stop offset="0.5" stop-color="#19C1CE" stop-opacity="0.4"/>
<stop offset="1" stop-color="#78EDF2" stop-opacity="0"/>
</linearGradient>
<linearGradient id="paint18_linear" x1="-78.0013" y1="216.345" x2="219.759" y2="765.729" gradientUnits="userSpaceOnUse">
<stop stop-color="#78EDF2"/>
<stop offset="0.5" stop-color="#19C1CE" stop-opacity="0.4"/>
<stop offset="1" stop-color="#78EDF2" stop-opacity="0"/>
</linearGradient>
<linearGradient id="paint19_linear" x1="-65.7327" y1="209.696" x2="232.028" y2="759.081" gradientUnits="userSpaceOnUse">
<stop stop-color="#78EDF2"/>
<stop offset="0.5" stop-color="#19C1CE" stop-opacity="0.4"/>
<stop offset="1" stop-color="#78EDF2" stop-opacity="0"/>
</linearGradient>
</defs>
</svg>
