<svg width="396" height="396" viewBox="0 0 396 396" fill="none" xmlns="http://www.w3.org/2000/svg">
<mask id="mask0" mask-type="alpha" maskUnits="userSpaceOnUse" x="0" y="0" width="396" height="396">
<rect x="396" y="396" width="396" height="396" transform="rotate(-180 396 396)" fill="#0B485B"/>
</mask>
<g mask="url(#mask0)">
<path fill-rule="evenodd" clip-rule="evenodd" d="M-23.5862 376.777L-23.4307 377.202L423.751 649.926L424.592 647.567L-21.9246 375.233L-230.146 -208.77L-231.949 -207.67L-23.5862 376.777ZM-11.3176 360.731L-11.1621 361.157L436.012 633.889L436.861 631.521L-9.65601 359.187L-217.878 -224.816L-219.688 -223.706L-11.3176 360.731ZM1.10596 345.111L0.950439 344.686L-207.42 -239.751L-205.61 -240.861L2.60498 343.15L449.129 615.476L448.28 617.843L1.10596 345.111ZM13.2185 328.64L13.3671 329.074L460.548 601.798L461.397 599.43L14.8732 327.104L-193.342 -256.908L-195.152 -255.798L13.2185 328.64ZM25.6355 313.029L25.4871 312.594L-182.883 -271.843L-181.073 -272.953L27.1417 311.059L473.666 583.384L472.817 585.752L25.6355 313.029ZM37.7556 296.548L37.9041 296.983L485.086 569.706L485.934 567.339L39.4103 295.013L-168.804 -288.999L-170.615 -287.889L37.7556 296.548ZM50.1721 280.937L50.0237 280.502L-158.347 -303.935L-156.536 -305.045L51.6782 278.967L498.202 551.293L497.354 553.66L50.1721 280.937ZM62.2849 264.466L62.4404 264.891L509.615 537.624L510.463 535.256L63.9467 262.921L-144.275 -321.082L-146.085 -319.972L62.2849 264.466ZM74.709 248.845L74.5535 248.42L-133.817 -336.018L-132.007 -337.128L76.2152 246.875L522.732 519.21L521.883 521.578L74.709 248.845ZM86.8215 232.375L86.9771 232.8L534.151 505.533L535 503.165L88.4762 230.839L-119.739 -353.173L-121.549 -352.063L86.8215 232.375Z" fill="url(#paint0_linear)"/>
</g>
<defs>
<linearGradient id="paint0_linear" x1="-180.545" y1="-274.902" x2="647.058" y2="357.866" gradientUnits="userSpaceOnUse">
<stop stop-color="#78EDF2"/>
<stop offset="0.5" stop-color="#19C1CE" stop-opacity="0.4"/>
<stop offset="1" stop-color="#78EDF2" stop-opacity="0"/>
</linearGradient>
</defs>
</svg>
