<svg width="396" height="396" viewBox="0 0 396 396" fill="none" xmlns="http://www.w3.org/2000/svg">
<mask id="mask0" mask-type="alpha" maskUnits="userSpaceOnUse" x="0" y="0" width="396" height="396">
<rect width="396" height="396" fill="#0B485B"/>
</mask>
<g mask="url(#mask0)">
<path fill-rule="evenodd" clip-rule="evenodd" d="M419.586 19.2229L419.431 18.7975L-27.7507 -253.926L-28.5923 -251.567L417.925 20.7674L626.146 604.77L627.949 603.67L419.586 19.2229ZM407.318 35.2689L407.162 34.8435L-40.0122 -237.889L-40.8607 -235.521L405.656 36.8133L613.878 620.816L615.688 619.706L407.318 35.2689ZM394.894 50.8889L395.05 51.3143L603.42 635.751L601.61 636.861L393.395 52.8495L-53.1289 -219.476L-52.2803 -221.843L394.894 50.8889ZM382.781 67.3603L382.633 66.9256L-64.5485 -205.798L-65.397 -203.43L381.127 68.8956L589.342 652.908L591.152 651.798L382.781 67.3603ZM370.365 82.9711L370.513 83.4058L578.883 667.843L577.073 668.953L368.858 84.9411L-77.6655 -187.384L-76.8169 -189.752L370.365 82.9711ZM358.244 99.4517L358.096 99.0171L-89.0856 -173.706L-89.9341 -171.339L356.59 100.987L564.804 684.999L566.615 683.889L358.244 99.4517ZM345.828 115.063L345.976 115.498L554.347 699.935L552.536 701.045L344.322 117.033L-102.202 -155.293L-101.354 -157.66L345.828 115.063ZM333.715 131.534L333.56 131.109L-113.615 -141.624L-114.463 -139.256L332.053 133.079L540.275 717.082L542.085 715.972L333.715 131.534ZM321.291 147.155L321.447 147.58L529.817 732.018L528.007 733.128L319.785 149.125L-126.732 -123.21L-125.883 -125.578L321.291 147.155ZM309.178 163.625L309.023 163.2L-138.151 -109.533L-139 -107.165L307.524 165.161L515.739 749.173L517.549 748.063L309.178 163.625Z" fill="url(#paint0_linear)"/>
</g>
<defs>
<linearGradient id="paint0_linear" x1="576.545" y1="670.902" x2="-251.058" y2="38.1335" gradientUnits="userSpaceOnUse">
<stop stop-color="#78EDF2"/>
<stop offset="0.5" stop-color="#19C1CE" stop-opacity="0.4"/>
<stop offset="1" stop-color="#78EDF2" stop-opacity="0"/>
</linearGradient>
</defs>
</svg>
